<?xml version="1.0" encoding="UTF-8" standalone="no"?>
<!-- Created with Inkscape (http://www.inkscape.org/) -->

<svg
   xmlns:dc="http://purl.org/dc/elements/1.1/"
   xmlns:cc="http://creativecommons.org/ns#"
   xmlns:rdf="http://www.w3.org/1999/02/22-rdf-syntax-ns#"
   xmlns:svg="http://www.w3.org/2000/svg"
   xmlns="http://www.w3.org/2000/svg"
   xmlns:sodipodi="http://sodipodi.sourceforge.net/DTD/sodipodi-0.dtd"
   xmlns:inkscape="http://www.inkscape.org/namespaces/inkscape"
   width="210mm"
   height="297mm"
   viewBox="0 0 744.09448819 1052.3622047"
   id="svg4268"
   version="1.1"
   inkscape:version="0.91 r13725"
   sodipodi:docname="fullstack_overview.svg">
  <defs
     id="defs4270">
    <inkscape:perspective
       sodipodi:type="inkscape:persp3d"
       inkscape:vp_x="-10 : 384.75252 : 1"
       inkscape:vp_y="0 : 999.99998 : 0"
       inkscape:vp_z="734.09448 : 384.75252 : 1"
       inkscape:persp3d-origin="362.04724 : 209.35882 : 1"
       id="perspective4986" />
    <inkscape:perspective
       sodipodi:type="inkscape:persp3d"
       inkscape:vp_x="0 : 526.1811 : 1"
       inkscape:vp_y="0 : 1000 : 0"
       inkscape:vp_z="744.09449 : 526.1811 : 1"
       inkscape:persp3d-origin="372.04724 : 350.7874 : 1"
       id="perspective4276" />
  </defs>
  <sodipodi:namedview
     id="base"
     pagecolor="#ffffff"
     bordercolor="#666666"
     borderopacity="1.0"
     inkscape:pageopacity="0.0"
     inkscape:pageshadow="2"
     inkscape:zoom="0.7"
     inkscape:cx="168.11874"
     inkscape:cy="531.01402"
     inkscape:document-units="px"
     inkscape:current-layer="layer1"
     showgrid="false"
     inkscape:window-width="1920"
     inkscape:window-height="1149"
     inkscape:window-x="0"
     inkscape:window-y="0"
     inkscape:window-maximized="1" />
  <metadata
     id="metadata4273">
    <rdf:RDF>
      <cc:Work
         rdf:about="">
        <dc:format>image/svg+xml</dc:format>
        <dc:type
           rdf:resource="http://purl.org/dc/dcmitype/StillImage" />
        <dc:title></dc:title>
      </cc:Work>
    </rdf:RDF>
  </metadata>
  <g
     inkscape:label="Layer 1"
     inkscape:groupmode="layer"
     id="layer1">
    <g
       sodipodi:type="inkscape:box3d"
       id="g4278"
       style="fill:#ff0000;fill-opacity:1;stroke:#ffffff;stroke-width:0.0992126;stroke-miterlimit:4;stroke-dasharray:none;stroke-opacity:1"
       inkscape:perspectiveID="#perspective4276"
       inkscape:corner0="4.6106711 : 2.0022909 : 0 : 1"
       inkscape:corner7="3.6714043 : 1.4936956 : 2.0607113 : 1">
      <path
         sodipodi:type="inkscape:box3dside"
         id="path4290"
         style="fill:#e9e9ff;fill-rule:evenodd;stroke:none;stroke-width:1px;stroke-linecap:butt;stroke-linejoin:round;stroke-opacity:1"
         inkscape:box3dsidetype="11"
         d="m 248.37911,288.03666 34.65393,-33.22598 0,75.54761 -34.65393,23.97611 z"
         points="283.03304,254.81068 283.03304,330.35829 248.37911,354.3344 248.37911,288.03666 " />
      <path
         sodipodi:type="inkscape:box3dside"
         id="path4280"
         style="fill:#353564;fill-rule:evenodd;stroke:none;stroke-width:1px;stroke-linecap:butt;stroke-linejoin:round;stroke-opacity:1"
         inkscape:box3dsidetype="6"
         d="m 66.310648,200.56995 0,90.64785 182.068462,63.1166 0,-66.29774 z"
         points="66.310648,291.2178 248.37911,354.3344 248.37911,288.03666 66.310648,200.56995 " />
      <path
         sodipodi:type="inkscape:box3dside"
         id="path4282"
         style="fill:#4d4d9f;fill-rule:evenodd;stroke:none;stroke-width:1px;stroke-linecap:butt;stroke-linejoin:round;stroke-opacity:1"
         inkscape:box3dsidetype="5"
         d="m 66.310648,200.56995 13.332905,-65.46977 203.389487,119.7105 -34.65393,33.22598 z"
         points="79.643553,135.10018 283.03304,254.81068 248.37911,288.03666 66.310648,200.56995 " />
      <path
         sodipodi:type="inkscape:box3dside"
         id="path4288"
         style="fill:#afafde;fill-rule:evenodd;stroke:none;stroke-width:1px;stroke-linecap:butt;stroke-linejoin:round;stroke-opacity:1"
         inkscape:box3dsidetype="13"
         d="M 66.310648,291.2178 79.643553,243.97436 283.03304,330.35829 248.37911,354.3344 Z"
         points="79.643553,243.97436 283.03304,330.35829 248.37911,354.3344 66.310648,291.2178 " />
      <path
         sodipodi:type="inkscape:box3dside"
         id="path4286"
         style="fill:#d7d7ff;fill-rule:evenodd;stroke:none;stroke-width:1px;stroke-linecap:butt;stroke-linejoin:round;stroke-opacity:1"
         inkscape:box3dsidetype="14"
         d="m 79.643553,135.10018 0,108.87418 203.389487,86.38393 0,-75.54761 z"
         points="79.643553,243.97436 283.03304,330.35829 283.03304,254.81068 79.643553,135.10018 " />
      <path
         sodipodi:type="inkscape:box3dside"
         id="path4284"
         style="fill:#8686bf;fill-rule:evenodd;stroke:none;stroke-width:1px;stroke-linecap:butt;stroke-linejoin:round;stroke-opacity:1"
         inkscape:box3dsidetype="3"
         d="m 66.310648,200.56995 13.332905,-65.46977 0,108.87418 -13.332905,47.24344 z"
         points="79.643553,135.10018 79.643553,243.97436 66.310648,291.2178 66.310648,200.56995 " />
    </g>
    <g
       sodipodi:type="inkscape:box3d"
       id="g4292"
       style="fill:#ff0000;fill-opacity:1;stroke:#ffffff;stroke-width:0.0992126;stroke-miterlimit:4;stroke-dasharray:none;stroke-opacity:1"
       inkscape:perspectiveID="#perspective4986"
       inkscape:corner0="1.141976 : 0.088160992 : 0 : 1"
       inkscape:corner7="0.67439165 : -0.17528843 : 0.37849716 : 1">
      <path
         sodipodi:type="inkscape:box3dside"
         id="path4302"
         style="fill:#afafde;fill-rule:evenodd;stroke:none;stroke-width:1px;stroke-linecap:butt;stroke-linejoin:round;stroke-opacity:1"
         inkscape:box3dsidetype="13"
         d="m 163.69347,831.32867 48.50498,45.71955 96.22351,-38.6148 -59.07189,-31.69028 z"
         points="212.19845,877.04822 308.42196,838.43342 249.35007,806.74314 163.69347,831.32867 " />
      <path
         sodipodi:type="inkscape:box3dside"
         id="path4294"
         style="fill:#353564;fill-rule:evenodd;stroke:none;stroke-width:1px;stroke-linecap:butt;stroke-linejoin:round;stroke-opacity:1"
         inkscape:box3dsidetype="6"
         d="m 163.69347,708.33504 0,122.99363 85.6566,-24.58553 0,-104.52379 z"
         points="163.69347,831.32867 249.35007,806.74314 249.35007,702.21935 163.69347,708.33504 " />
      <path
         sodipodi:type="inkscape:box3dside"
         id="path4304"
         style="fill:#e9e9ff;fill-rule:evenodd;stroke:none;stroke-width:1px;stroke-linecap:butt;stroke-linejoin:round;stroke-opacity:1"
         inkscape:box3dsidetype="11"
         d="m 249.35007,702.21935 59.07189,7.883 0,128.33107 -59.07189,-31.69028 z"
         points="308.42196,710.10235 308.42196,838.43342 249.35007,806.74314 249.35007,702.21935 " />
      <path
         sodipodi:type="inkscape:box3dside"
         id="path4296"
         style="fill:#4d4d9f;fill-rule:evenodd;stroke:none;stroke-width:1px;stroke-linecap:butt;stroke-linejoin:round;stroke-opacity:1"
         inkscape:box3dsidetype="5"
         d="m 163.69347,708.33504 48.50498,11.3728 96.22351,-9.60549 -59.07189,-7.883 z"
         points="212.19845,719.70784 308.42196,710.10235 249.35007,702.21935 163.69347,708.33504 " />
      <path
         sodipodi:type="inkscape:box3dside"
         id="path4300"
         style="fill:#d7d7ff;fill-rule:evenodd;stroke:none;stroke-width:1px;stroke-linecap:butt;stroke-linejoin:round;stroke-opacity:1"
         inkscape:box3dsidetype="14"
         d="m 212.19845,719.70784 0,157.34038 96.22351,-38.6148 0,-128.33107 z"
         points="212.19845,877.04822 308.42196,838.43342 308.42196,710.10235 212.19845,719.70784 " />
      <path
         sodipodi:type="inkscape:box3dside"
         id="path4298"
         style="fill:#8686bf;fill-rule:evenodd;stroke:none;stroke-width:1px;stroke-linecap:butt;stroke-linejoin:round;stroke-opacity:1"
         inkscape:box3dsidetype="3"
         d="m 163.69347,708.33504 48.50498,11.3728 0,157.34038 -48.50498,-45.71955 z"
         points="212.19845,719.70784 212.19845,877.04822 163.69347,831.32867 163.69347,708.33504 " />
    </g>
    <flowRoot
       xml:space="preserve"
       id="flowRoot4306"
       style="font-style:normal;font-weight:normal;font-size:50px;line-height:125%;font-family:sans-serif;letter-spacing:0px;word-spacing:0px;fill:#000000;fill-opacity:1;stroke:none;stroke-width:1px;stroke-linecap:butt;stroke-linejoin:miter;stroke-opacity:1"><flowRegion
         id="flowRegion4308"><rect
           id="rect4310"
           width="444.28571"
           height="132.85713"
           x="125.71429"
           y="13.790775" /></flowRegion><flowPara
         id="flowPara4312">Server - a remote computer</flowPara></flowRoot>    <flowRoot
       xml:space="preserve"
       id="flowRoot4314"
       style="font-style:normal;font-weight:normal;font-size:50px;line-height:125%;font-family:sans-serif;letter-spacing:0px;word-spacing:0px;fill:#000000;fill-opacity:1;stroke:none;stroke-width:1px;stroke-linecap:butt;stroke-linejoin:miter;stroke-opacity:1"
       transform="translate(-68.571429,124.28571)"><flowRegion
         id="flowRegion4316"><rect
           id="rect4318"
           width="571.42853"
           height="128.57146"
           x="74.285713"
           y="803.79077" /></flowRegion><flowPara
         id="flowPara4320">Client- the computer in front of you</flowPara></flowRoot>    <flowRoot
       xml:space="preserve"
       id="flowRoot4322"
       style="fill:black;stroke:none;stroke-opacity:1;stroke-width:1px;stroke-linejoin:miter;stroke-linecap:butt;fill-opacity:1;font-family:sans-serif;font-style:normal;font-weight:normal;font-size:50px;line-height:125%;letter-spacing:0px;word-spacing:0px"><flowRegion
         id="flowRegion4324"><rect
           id="rect4326"
           width="41.42857"
           height="61.42857"
           x="654.28571"
           y="873.79077" /></flowRegion><flowPara
         id="flowPara4328"></flowPara></flowRoot>    <path
       style="fill:#ff0000;fill-opacity:1;stroke:#ffffff;stroke-width:0.05;stroke-miterlimit:4;stroke-dasharray:none;stroke-opacity:1"
       id="path4330"
       d="m 228.85815,190.71396 c 4.24371,-4.58775 8.19935,-9.43953 13.0058,-13.45768 29.48184,-16.85736 42.20451,-33.14198 70.24292,-34.78897 5.52064,-0.97361 11.11956,-1.24504 16.70922,-1.45867 5.76779,-0.19345 11.54179,-0.062 17.31128,-0.006 6.77034,0.1774 13.56899,-0.34325 20.31722,0.28217 5.45469,1.28849 10.56113,3.60066 15.85574,5.37851 4.66368,1.69258 9.09037,3.93556 13.50367,6.20797 3.34992,1.63323 6.91232,2.67137 10.39944,3.93129 4.0495,1.93895 7.93781,4.17149 11.94338,6.19615 3.55628,2.01921 6.99308,4.40681 10.96589,5.51097 1.75094,1.02986 3.86427,1.11276 5.71901,1.80149 1.99733,0.74168 3.8501,1.77005 5.88605,2.46056 5.08269,1.36493 10.26549,1.93154 15.50945,2.25523 3.4683,-0.0552 6.99702,0.4734 10.46383,0.20004 1.57944,-0.12455 2.93835,-0.57828 4.45519,-0.99522 0.73949,-0.30013 1.52334,-0.50829 2.21846,-0.90038 0.70433,-0.39728 2.65024,-1.846 1.94597,-1.4486 -17.45303,9.84835 -34.80501,19.87473 -52.2084,29.81055 -0.67335,0.38443 1.36394,-0.74042 2.01829,-1.15638 1.32707,-0.84358 2.40832,-1.74078 3.64346,-2.70904 3.1896,-2.87881 5.75465,-6.14512 7.35216,-10.12866 1.35713,-4.78316 1.36365,-9.77031 1.43696,-14.69821 0.22463,-4.82737 1.34931,-9.55655 2.15473,-14.31239 1.21457,-4.8491 1.64752,-9.80922 1.92669,-14.78341 0.0231,-0.83939 0.0463,-1.67879 0.0694,-2.51818 0,0 56.44503,-28.55317 56.44503,-28.55317 l 0,0 c -0.0268,0.87221 -0.0535,1.74442 -0.0803,2.61663 -0.15114,5.20821 -0.3163,10.45714 -1.2887,15.58756 -1.06392,4.3998 -1.48509,8.94439 -2.80705,13.29241 -0.0368,5.35156 -0.0479,10.73633 -0.75333,16.04772 -0.3646,2.49981 -0.78193,5.20847 -1.90591,7.51399 -0.99941,2.05002 -2.72214,3.84862 -4.04586,5.67736 -1.27728,1.61791 -3.3228,4.25438 -5.11971,5.3043 -20.99703,12.2685 -38.17075,29.99897 -61.60219,33.36524 -5.21652,0.33315 -10.45505,-0.10007 -15.65172,-0.59648 -5.70115,-0.64173 -11.44229,-1.43257 -16.85191,-3.43237 -3.8224,-1.58522 -7.76882,-2.77733 -11.61251,-4.31664 -3.86744,-1.82504 -7.45292,-4.10582 -11.22714,-6.10664 -3.80976,-1.94315 -7.53724,-4.11645 -11.65499,-5.36628 -3.685,-1.2423 -7.18179,-2.99739 -10.64162,-4.75979 -4.26668,-2.08801 -8.58088,-4.01968 -13.07877,-5.56606 -4.71813,-1.79667 -9.49069,-3.81352 -14.59763,-4.03702 -6.65963,-0.10929 -13.32046,-0.0857 -19.98081,-0.0815 -5.79612,0.0676 -11.59325,0.14798 -17.38326,0.44061 -5.51129,0.34394 -10.97805,1.06469 -16.45483,1.75003 -3.52745,0.593 -6.83893,1.39324 -10.09163,2.92601 -0.79198,0.3732 -3.09363,1.63903 -2.33785,1.19709 17.2025,-10.05911 34.45427,-20.03374 51.68141,-30.05061 -1.95064,1.02057 -3.33979,1.63841 -5.09787,3.01882 -3.11033,2.44218 -5.45618,5.7348 -8.08668,8.64511 0,0 -58.62,24.81014 -58.62,24.81014 z"
       inkscape:connector-curvature="0" />
    <path
       style="fill:#ff0000;fill-opacity:1;stroke:#ffffff;stroke-width:0.05;stroke-miterlimit:4;stroke-dasharray:none;stroke-opacity:1"
       id="path4900"
       d="m 271.88395,266.39834 c 6.26408,-2.79643 12.95776,-3.66744 19.70832,-4.43809 7.22313,-0.64084 14.39034,-1.67051 21.62736,-2.19741 3.46034,-0.39671 6.98771,0.0337 10.44719,-0.26459 1.48878,-0.12837 2.94925,-0.48597 4.42999,-0.68686 5.26113,-0.36136 10.53554,-0.63909 15.8098,-0.67198 4.4145,-0.0907 8.82945,-0.0938 13.24451,-0.12455 4.25411,-0.0294 8.50583,0.09 12.76009,0.0686 4.92633,-0.52919 9.02157,1.34107 13.54494,2.93919 4.5948,1.20185 8.50983,4.03464 12.36413,6.69568 4.20318,3.158 8.45148,6.13572 12.9708,8.80694 3.74716,2.44207 7.07028,5.50248 10.37054,8.51006 2.60771,2.72817 5.74695,4.79849 8.9089,6.81332 4.31224,2.59905 8.75827,4.96276 13.16474,7.39516 0.81865,0.48655 1.61716,1.00872 2.45595,1.45966 0.74986,0.40313 1.53672,0.73328 2.30508,1.09992 0.76096,0.39085 1.53116,0.76421 2.28287,1.17255 2.14501,1.1652 4.16033,2.53814 6.26432,3.77376 2.92156,1.45613 5.27181,3.87279 8.24487,5.22413 1.57586,0.71628 2.33856,0.80206 4.02103,1.18995 4.36402,0.74706 8.80286,0.73328 13.21502,0.68169 3.46951,-0.64454 6.01444,-3.15788 9.03239,-4.72516 -92.65834,53.51598 -61.18706,36.53894 -41.86517,23.34338 3.48753,-2.54593 6.67662,-5.44558 9.64044,-8.57512 2.53391,-2.94685 3.94803,-6.69128 5.47125,-10.22665 1.10893,-2.33485 2.07334,-4.71636 2.76811,-7.2045 0,0 57.02154,-27.56594 57.02154,-27.56594 l 0,0 c -0.46188,2.92561 -0.9722,5.81749 -2.32067,8.49572 -1.77111,3.74005 -3.17697,7.57552 -4.73851,11.40724 -2.41046,3.98952 -5.71151,7.21399 -9.23582,10.23654 -16.97326,15.02443 -66.35164,33.62006 -66.06971,39.76462 -3.41828,1.87192 -7.13296,2.65668 -11.03183,2.14942 -4.77955,-0.29036 -9.59303,-0.72137 -14.13637,-2.34619 -4.65306,-1.96863 -8.63063,-4.95848 -12.96064,-7.52339 -4.31495,-2.53523 -8.67273,-4.98265 -13.03896,-7.42936 -4.63471,-2.47633 -9.32905,-4.85631 -13.82874,-7.57377 -3.36528,-2.24485 -6.42518,-4.84915 -9.26565,-7.73356 -3.112,-2.74669 -6.35236,-5.3509 -9.8921,-7.53264 -4.31194,-2.86726 -8.15714,-6.37163 -12.60715,-9.04137 -3.80757,-2.15549 -7.69936,-4.01082 -11.91535,-5.23586 -4.02998,-1.3174 -8.01886,-1.52946 -12.24302,-1.32044 -4.30729,-0.0257 -8.61247,0.0884 -12.91963,0.052 -4.29821,-0.0292 -8.59773,-0.0251 -12.8951,0.0674 -5.21581,0.23272 -10.43912,0.41429 -15.6144,1.16591 -4.91522,0.39216 -9.86837,0.11478 -14.78311,0.61939 -6.97502,0.51715 -13.93292,1.31692 -20.8687,2.20557 -6.90457,1.2612 -13.51868,3.35638 -19.79053,6.55356 0,0 49.94698,-39.47387 49.94698,-39.47387 z"
       inkscape:connector-curvature="0" />
    <flowRoot
       xml:space="preserve"
       id="flowRoot4902"
       style="font-style:normal;font-weight:normal;font-size:50px;line-height:125%;font-family:sans-serif;letter-spacing:0px;word-spacing:0px;fill:#000000;fill-opacity:1;stroke:none;stroke-width:1px;stroke-linecap:butt;stroke-linejoin:miter;stroke-opacity:1"><flowRegion
         id="flowRegion4904"><rect
           id="rect4906"
           width="242.85715"
           height="138.57143"
           x="512.85712"
           y="96.647919" /></flowRegion><flowPara
         id="flowPara4908">My SQL database</flowPara></flowRoot>    <flowRoot
       xml:space="preserve"
       id="flowRoot4910"
       style="font-style:normal;font-weight:normal;font-size:50px;line-height:125%;font-family:sans-serif;letter-spacing:0px;word-spacing:0px;fill:#000000;fill-opacity:1;stroke:none;stroke-width:1px;stroke-linecap:butt;stroke-linejoin:miter;stroke-opacity:1"><flowRegion
         id="flowRegion4912"><rect
           id="rect4914"
           width="250"
           height="231.42857"
           x="505.71429"
           y="262.36221" /></flowRegion><flowPara
         id="flowPara4916">PHP prog lang</flowPara></flowRoot>    <flowRoot
       xml:space="preserve"
       id="flowRoot4918"
       style="font-style:normal;font-weight:normal;font-size:50px;line-height:125%;font-family:sans-serif;letter-spacing:0px;word-spacing:0px;fill:#000000;fill-opacity:1;stroke:none;stroke-width:1px;stroke-linecap:butt;stroke-linejoin:miter;stroke-opacity:1"
       transform="translate(37.142857,-24.285714)"><flowRegion
         id="flowRegion4920"><rect
           id="rect4922"
           width="318.57147"
           height="150.00002"
           x="425.71429"
           y="419.50507" /></flowRegion><flowPara
         id="flowPara4924">The &quot;Back end&quot;</flowPara></flowRoot>    <path
       style="fill:#ff0000;fill-opacity:1;stroke:#ffffff;stroke-width:0.05;stroke-miterlimit:4;stroke-dasharray:none;stroke-opacity:1"
       id="path4934"
       d="m 313.5094,702.35329 c 17.43168,1.39995 34.94958,1.30063 52.42478,1.19894 13.02163,-0.62137 26.07529,0.13164 39.08628,-0.58941 4.49015,-0.57441 9.15319,-0.0619 13.58174,-1.00328 4.29262,-0.8035 8.68358,-0.85912 13.03657,-0.99594 3.6886,0.28833 7.12021,-1.02521 10.76064,-1.3014 3.96729,-0.2096 7.9349,-0.19845 11.90518,-0.19569 2.10551,-0.0171 4.21086,9.2e-4 6.31642,-0.004 0,0 -51.19578,37.20715 -51.19578,37.20715 l 0,0 c -2.08591,10e-4 -4.17131,0.0223 -6.25707,0.0482 -3.886,0.10114 -7.79319,0.25931 -11.63459,0.88726 -3.61676,0.64775 -7.21147,0.71715 -10.88003,0.75776 -4.31895,0.261 -8.59221,0.84306 -12.88527,1.3498 -4.46525,0.0639 -8.93062,0.2535 -13.39729,0.0991 -12.09212,-0.5567 -24.15641,-1.79016 -36.2837,-1.4969 -18.57808,-0.10987 -37.18261,-0.0943 -55.72518,1.19894 0,0 51.1473,-37.16069 51.1473,-37.16069 z"
       inkscape:connector-curvature="0" />
    <path
       style="fill:#ff0000;fill-opacity:1;stroke:#ffffff;stroke-width:0.05;stroke-miterlimit:4;stroke-dasharray:none;stroke-opacity:1"
       id="path4936"
       d="m 313.27906,746.9957 c 20.18545,5.75696 41.14842,7.769 61.89067,10.45794 21.97912,2.62881 44.06969,4.34227 66.19462,5.03169 5.43164,0.0507 11.31889,0.50104 16.43279,-1.70525 3.48538,-1.10996 7.10785,-1.29233 10.7327,-1.30589 4.45333,0.0898 8.90665,0.10903 13.36056,0.0678 0,0 -50.94609,37.03877 -50.94609,37.03877 l 0,0 c -4.47361,-0.0143 -8.95952,8.9e-4 -13.41245,0.48431 -3.45948,0.47268 -6.82726,1.33238 -10.2265,2.11325 -5.38517,0.26244 -10.71071,0.067 -16.04055,-0.89839 -20.70966,-2.77256 -41.36166,-5.9937 -62.14731,-8.17831 -15.21249,-1.58485 -30.44426,-2.89975 -45.66119,-4.43476 -3.67345,-0.37056 -13.08055,-1.44422 -17.42941,-1.74173 -1.48385,-0.10152 -2.97317,-0.0936 -4.45975,-0.14038 0,0 51.71191,-36.78907 51.71191,-36.78907 z"
       inkscape:connector-curvature="0" />
    <path
       style="fill:#ff0000;fill-opacity:1;stroke:#ffffff;stroke-width:0.05;stroke-miterlimit:4;stroke-dasharray:none;stroke-opacity:1"
       id="path4938"
       d="m 316.88657,801.81983 c 3.06657,5.33996 7.66854,9.3312 12.52895,12.97583 5.81036,3.67197 12.01147,6.77401 18.3608,9.40181 5.2694,2.52488 10.92058,3.99301 16.35348,6.07913 4.47803,1.98785 9.24516,3.16076 13.89234,4.68141 6.11857,2.18666 12.26032,4.29152 18.4033,6.40437 3.23197,1.30092 6.75823,1.51191 10.04468,2.59678 1.41024,0.46552 2.7811,1.04427 4.18753,1.52116 5.24215,1.81397 10.53908,3.15804 16.01395,4.09454 9.57942,1.12921 19.07263,2.80653 28.67648,3.73121 7.74839,0.56068 15.51998,0.7018 23.28135,1.0123 17.53903,0.77593 35.09719,0.65758 52.64307,0.24332 2.17818,-0.0667 4.35635,-0.13343 6.53453,-0.20015 0,0 -49.57728,36.02559 -49.57728,36.02559 l 0,0 c -1.99897,-0.0636 -3.99795,-0.12726 -5.99693,-0.1909 -17.78598,-0.423 -35.57804,-0.41183 -53.36011,0.22062 -8.14632,0.18819 -16.31264,0.36483 -24.3709,-1.09908 -9.5667,-1.40633 -19.08984,-3.09625 -28.71914,-4.04567 -5.9576,-0.98 -11.88642,-2.16511 -17.55115,-4.31066 -4.53281,-1.60471 -9.27738,-2.56866 -13.72235,-4.45268 -6.1814,-2.13746 -12.35021,-4.32018 -18.67084,-6.02217 -4.74094,-1.44333 -9.38058,-3.17149 -13.99312,-4.97932 -5.52193,-1.95647 -10.91733,-4.20896 -16.23366,-6.6743 -6.56356,-3.17061 -13.30285,-6.17523 -19.1063,-10.65367 -5.27754,-4.1355 -10.02419,-8.70581 -14.19838,-13.96918 0,0 54.5797,-32.39029 54.5797,-32.39029 z"
       inkscape:connector-curvature="0" />
    <flowRoot
       xml:space="preserve"
       id="flowRoot4940"
       style="font-style:normal;font-weight:normal;font-size:50px;line-height:125%;font-family:sans-serif;letter-spacing:0px;word-spacing:0px;fill:#000000;fill-opacity:1;stroke:none;stroke-width:1px;stroke-linecap:butt;stroke-linejoin:miter;stroke-opacity:1"
       transform="translate(2.8571429,140)"><flowRegion
         id="flowRegion4942"><rect
           id="rect4944"
           width="257.14285"
           height="87.14286"
           x="495.71429"
           y="552.36218" /></flowRegion><flowPara
         id="flowPara4946">HTML</flowPara></flowRoot>    <flowRoot
       xml:space="preserve"
       id="flowRoot4948"
       style="font-style:normal;font-weight:normal;font-size:50px;line-height:125%;font-family:sans-serif;letter-spacing:0px;word-spacing:0px;fill:#000000;fill-opacity:1;stroke:none;stroke-width:1px;stroke-linecap:butt;stroke-linejoin:miter;stroke-opacity:1"
       transform="translate(12.857143,124.28571)"><flowRegion
         id="flowRegion4950"><rect
           id="rect4952"
           width="238.57143"
           height="72.85714"
           x="494.28571"
           y="626.64795" /></flowRegion><flowPara
         id="flowPara4954">CSS</flowPara></flowRoot>    <flowRoot
       xml:space="preserve"
       id="flowRoot4956"
       style="font-style:normal;font-weight:normal;font-size:50px;line-height:125%;font-family:sans-serif;letter-spacing:0px;word-spacing:0px;fill:#000000;fill-opacity:1;stroke:none;stroke-width:1px;stroke-linecap:butt;stroke-linejoin:miter;stroke-opacity:1"
       transform="translate(-80,105.71428)"><flowRegion
         id="flowRegion4958"><rect
           id="rect4960"
           width="304.28571"
           height="82.85714"
           x="535.71429"
           y="720.93365" /></flowRegion><flowPara
         id="flowPara4962">JAVASCRIPT</flowPara></flowRoot>    <path
       style="fill:#ff0000;fill-opacity:1;stroke:#ffffff;stroke-width:0.05;stroke-miterlimit:4;stroke-dasharray:none;stroke-opacity:1"
       id="path4964"
       d="m 182.77041,338.94276 c -4.2679,-3.09244 -8.15787,-5.2938 -11.09662,-5.1634 -2.26608,0.56388 -3.39379,3.30969 -5.02195,5.08712 -1.59237,1.31503 -2.40114,4.0309 -3.55326,6.13116 -1.09978,2.67172 -2.17793,5.38413 -3.51254,7.64636 -1.67808,2.49256 -3.03087,5.5528 -4.31699,8.73073 -1.05015,3.13552 -1.20751,7.68101 -1.354,12.22841 -0.006,4.41723 -0.13152,8.65763 -0.01,13.2604 0.94283,7.65442 2.71854,16.35412 3.90496,24.32293 0.93869,6.2329 1.92181,12.49234 4.3014,20.34494 1.92994,6.06854 5.28733,12.89739 8.43213,19.41128 4.3126,8.7879 9.0549,16.60526 13.93646,24.22618 7.16289,10.85582 14.33529,21.29808 21.37681,33.06042 6.22026,10.33782 12.43455,20.7625 18.72559,30.79793 3.78302,6.18166 7.65416,11.49546 11.45422,17.37509 1.50538,2.3292 2.98507,4.83176 4.47767,7.24735 2.31236,3.69891 4.72606,7.41833 6.92312,11.4779 1.37406,2.53889 2.64323,5.16735 3.99942,7.72425 4.53655,8.60281 9.13861,17.10721 13.53465,25.81868 4.6218,9.26838 8.2981,18.38974 10.99679,26.80519 2.11968,6.6374 2.97364,11.81414 3.54463,16.6725 0.75625,4.68971 1.14361,8.89575 1.41948,12.94748 0.17469,3.90254 0.18162,7.56229 0.18716,11.22045 0.0263,3.58289 -0.0106,7.07267 0.0147,10.65422 0.27314,4.96234 -1.14726,7.17572 -2.48144,9.51461 -1.51472,1.25096 -2.32407,3.74906 -3.39444,5.79427 -0.85389,2.08282 -1.11869,5.12977 -1.23186,8.3882 -0.1069,3.2892 -0.0765,6.77946 -0.0455,10.27095 0.16355,4.11672 2.25901,10.51975 3.87338,16.30487 0,0 -55.07139,-49.33505 -55.07139,-49.33505 l 0,0 c -1.82356,-6.7291 -4.39827,-14.39619 -5.02275,-19.77925 -0.58766,-4.49311 -0.25226,-7.70144 -0.3252,-11.4822 0.0658,-3.69145 0.0761,-7.47557 0.72436,-10.27459 0.32204,-1.4714 0.92793,-2.27409 1.42888,-3.42771 0.54138,-1.24672 0.66755,-3.22414 1.69643,-3.61529 1.14411,-0.81955 1.93881,-2.2491 2.78438,-3.61668 0.16358,-0.26458 0.4562,-0.30492 0.53796,-0.70858 0.0931,-0.46004 -0.0144,-1.22755 -0.0216,-1.84132 0.0306,-3.50541 0.004,-7.09366 0.0358,-10.59719 0.002,-3.53983 0.017,-7.06245 -0.0837,-10.75104 -0.0968,-3.57049 -0.30941,-7.31087 -1.02796,-11.72512 -0.643,-4.13316 -0.59117,-7.41714 -2.27583,-12.78965 -2.18479,-6.69307 -5.0618,-13.55353 -8.88732,-20.83066 -4.40692,-8.45792 -8.98863,-16.75031 -13.47267,-25.1377 -3.2684,-5.94188 -6.70223,-11.26634 -10.11445,-16.80976 -5.17363,-8.22605 -10.41995,-15.99686 -15.56666,-24.44607 -6.18095,-10.13869 -12.32481,-20.40903 -18.4796,-30.64107 -7.24785,-11.37044 -14.54101,-21.88522 -21.77699,-33.32462 -5.45353,-9.09792 -10.76335,-18.57135 -15.46736,-28.51165 -4.07626,-8.56752 -7.92642,-17.06224 -10.21824,-24.81083 -2.61815,-8.87802 -4.00807,-16.27049 -4.77178,-23.02094 -1.02135,-7.86116 -3.004026,-16.83556 -4.307906,-25.04256 -0.20868,-1.31846 -0.50106,-2.74551 -0.62605,-3.95539 -0.43803,-4.24001 0.1875,-7.06884 -0.007,-10.96609 0.0773,-4.99016 0.29468,-9.79802 1.03476,-13.77045 0.80693,-4.11351 2.372066,-6.99714 4.023316,-9.66931 0.42666,-0.88906 1.06667,-1.40369 1.44641,-2.37375 0.18272,-0.46672 0.15607,-1.27881 0.31186,-1.79105 0.41699,-1.37106 1.48406,-1.60302 1.63787,-3.42647 2.02625,-5.35492 -0.9398,2.17087 1.1811,-2.27608 0.73883,-1.54911 1.00598,-3.92975 2.04894,-4.95287 1.76177,-1.80691 3.54971,-3.55524 4.89818,-6.12379 2.58625,-1.6763 4.94905,-1.80081 9.6297,1.12037 0,0 59.01997,62.40311 59.01997,62.40311 z"
       inkscape:connector-curvature="0" />
    <flowRoot
       xml:space="preserve"
       id="flowRoot4966"
       style="font-style:normal;font-weight:normal;font-size:50px;line-height:125%;font-family:sans-serif;letter-spacing:0px;word-spacing:0px;fill:#000000;fill-opacity:1;stroke:none;stroke-width:1px;stroke-linecap:butt;stroke-linejoin:miter;stroke-opacity:1"><flowRegion
         id="flowRegion4968"><rect
           id="rect4970"
           width="144.28572"
           height="224.28572"
           x="34.285713"
           y="433.79077" /></flowRegion><flowPara
         id="flowPara4972">INTERNAT</flowPara></flowRoot>    <flowRoot
       xml:space="preserve"
       id="flowRoot4974"
       style="font-style:normal;font-weight:normal;font-size:50px;line-height:125%;font-family:sans-serif;letter-spacing:0px;word-spacing:0px;fill:#000000;fill-opacity:1;stroke:none;stroke-width:1px;stroke-linecap:butt;stroke-linejoin:miter;stroke-opacity:1"
       transform="matrix(0.58781761,0.80899349,-0.80899349,0.58781761,441.11313,87.725107)"><flowRegion
         id="flowRegion4976"><rect
           id="rect4978"
           width="348.57144"
           height="157.14285"
           x="45.714287"
           y="450.93362" /></flowRegion><flowPara
         id="flowPara4980">INTERNET CONNECTIONJ</flowPara></flowRoot>    <path
       style="fill:#ff0000;fill-opacity:0.4085366;stroke:#ffffff;stroke-width:0.31184369;stroke-miterlimit:0.5;stroke-dasharray:none;stroke-opacity:1"
       id="path4982"
       d="m 80.300642,145.51221 c -2.621011,-3.64083 -6.319112,-5.50574 -9.978568,-6.69569 -0.451633,-0.10308 -2.930134,-0.71796 -3.456579,-0.65287 -0.492415,0.0609 -0.933057,0.42507 -1.403231,0.62358 -1.471524,0.62128 -2.934218,1.1057 -4.378449,1.83258 -1.782981,1.22325 -3.694167,2.40085 -5.650079,3.09595 -0.576566,0.20491 -1.176847,0.27536 -1.765269,0.41303 -0.617342,0.22157 -1.234684,0.44313 -1.852026,0.66471 -0.605162,0.31044 -1.204982,0.63884 -1.815484,0.93133 -1.488073,0.71292 -2.127453,0.86044 -3.575324,1.70004 -1.626614,0.94324 -3.087146,2.26386 -4.669372,3.31967 -14.49395,11.9312 -2.910757,2.36033 39.298195,-29.18619 0.381572,-0.28517 -0.795466,0.49557 -1.171613,0.79252 -1.167834,0.92198 -2.14257,2.19314 -3.143822,3.38065 -2.220973,3.48165 -4.411546,6.98497 -6.740401,10.35039 -2.724294,3.74474 -5.507592,7.42921 -7.677798,11.75441 -1.662149,3.48646 -2.281665,7.46155 -2.561244,11.48043 -0.149311,3.5267 -0.126078,7.05939 -0.08451,10.58934 0.02764,3.9045 -0.04105,7.80692 -0.02014,11.71129 0.194994,3.55994 -0.227916,7.07045 -0.583364,10.58527 -0.333631,3.91247 -0.870244,7.7842 -1.235148,11.69159 -0.31541,4.24879 -0.370085,8.52851 -0.40783,12.7948 -0.03863,4.02698 0.0524,8.05362 0.03581,12.0803 -0.07408,4.2309 0.03261,8.46366 -0.05964,12.69333 -0.601948,5.72938 -1.859527,11.27464 -2.51045,17.00401 -0.662569,4.32064 -0.471319,8.61212 -0.182464,12.95318 0.262213,4.63621 0.70192,9.26736 1.372636,13.8345 0.758586,5.03089 1.983484,9.88726 3.125088,14.78517 1.309638,4.43511 2.707199,8.82044 4.013576,13.25801 1.344431,4.52783 4.149498,6.78901 7.325146,8.98019 0.75361,0.45094 1.494694,0.93855 2.26083,1.35282 0.07236,0.0391 4.500839,2.1727 4.573566,2.21304 2.418582,1.34167 4.613026,3.21402 6.979577,4.6981 5.124569,3.19093 10.601578,5.26412 15.942589,7.76775 3.44462,1.28104 6.74888,3.09998 10.1275,4.61587 3.44381,1.54513 6.57021,2.55405 10.12618,3.81631 20.85853,8.15008 41.57797,16.80545 62.63036,24.10922 11.31106,3.85017 22.57259,8.06564 33.66256,12.88357 4.43307,1.64572 8.91198,3.0674 13.14656,5.46857 3.70118,1.74683 7.17054,4.17796 10.81918,6.06667 5.08648,2.51445 10.0531,5.40648 14.99909,8.35077 3.81437,2.36545 7.65569,4.51848 11.05039,7.81978 3.89034,4.17706 8.28512,7.44509 12.59432,10.83083 4.26479,2.74772 8.05317,6.24525 11.68065,10.18815 3.18526,3.36141 5.96854,7.27917 8.72632,11.20358 2.87283,3.78482 5.26909,8.09544 8.04572,11.98749 3.94062,5.26611 9.01832,8.58287 13.97784,11.93975 4.35159,2.60052 8.11488,6.45919 12.3135,9.38422 2.6394,2.46526 5.77267,3.71976 8.60964,5.68629 1.3862,0.9609 2.6657,2.17372 3.95448,3.3281 3.90409,4.05913 7.57766,8.44718 11.6833,12.17467 1.81388,1.83748 3.87022,3.36463 5.48358,5.52376 1.30837,1.75096 2.32477,3.90949 3.37447,5.91668 1.77864,2.50882 3.37561,5.25023 5.22017,7.67677 2.64877,2.26973 5.84734,3.79925 8.98427,4.47875 4.95424,2.03513 10.17918,2.66203 15.30388,3.58754 15.0563,2.71919 -2.97819,-0.31724 11.76225,2.11839 7.9905,1.33028 15.79158,4.05227 23.63521,6.36069 4.04343,1.23911 8.19307,1.41956 12.32724,1.4905 3.98731,0.18587 7.93789,-0.62875 11.90302,-1.07539 5.83869,-0.46224 11.69264,-0.0309 17.53701,0.019 3.8426,-0.18762 7.72632,0.38672 11.52388,-0.6724 2.77464,-0.77383 5.16218,-2.45955 7.54807,-4.34597 -13.3075,9.81026 -26.61502,19.62048 -39.92249,29.43082 -0.54476,0.40158 1.1028,-0.77451 1.63434,-1.20463 1.73081,-1.40055 3.29601,-3.14507 4.77056,-4.95957 2.1467,-3.25672 3.19895,-7.59856 3.96142,-11.70123 0.92688,-6.18146 3.0041,-11.90054 4.47643,-17.8619 1.22154,-5.48273 1.66039,-11.18564 2.47489,-16.78239 0.31683,-1.72583 1.21566,-9.63207 2.37445,-10.48771 14.43438,-10.65831 29.09617,-20.7947 43.64426,-31.19204 3.60375,0.35476 5.30244,-0.17564 8.02532,3.39331 0.7367,-0.0912 1.29182,-0.17988 2.09115,-0.11921 3.29672,0.25017 6.5789,0.76826 9.87512,1.02904 8.32295,0.65848 11.76507,0.73039 20.51685,1.12714 24.88191,0.89488 49.76751,0.49723 74.64037,-0.55239 5.66614,-0.34651 11.33562,-0.0747 16.98844,0.44034 1.26363,0.11512 2.53593,0.1459 3.78806,0.39388 2.19329,0.43436 6.78143,2.09466 8.7768,2.77778 10.19413,2.65091 20.41516,6.00138 30.88101,6.0904 1.38908,0.0118 2.7753,-0.16491 4.16294,-0.24737 1.03368,-0.49652 2.13156,-0.81056 3.10101,-1.48953 0.89625,-0.62771 3.32711,-3.02844 2.4361,-2.38846 -13.07338,9.39021 -25.8925,19.36579 -39.0082,28.65708 -0.92598,0.65598 1.62553,-1.74711 2.37615,-2.70653 1.57061,-2.00745 3.57012,-5.20224 4.96148,-7.34705 3.74512,-5.74172 7.05684,-11.91199 9.50416,-18.74266 1.78764,-4.98949 2.44027,-7.87858 3.83262,-13.09917 3.58963,-16.36039 6.67998,-32.94571 8.98877,-49.69117 2.36627,-19.1149 2.70101,-38.50202 2.92323,-57.81624 0.0258,-3.05033 0.0512,-6.10065 0.0774,-9.15096 0.0828,-9.6591 0.0609,-19.23248 -0.62369,-28.86443 -0.66601,-9.37093 -1.0602,-11.49033 -2.23211,-20.90064 -2.96807,-22.16116 -7.45133,-43.90891 -10.88755,-65.94561 -2.51429,-17.17018 -3.80678,-34.58409 -4.13342,-52.0404 0.37017,-15.96628 -1.30379,-31.53994 -4.37274,-46.96103 -2.32804,-12.18819 -6.73796,-23.24466 -11.79892,-33.852475 -4.20787,-8.090611 -8.76025,-15.90383 -14.60737,-22.157288 -3.5204,-3.765025 -6.37343,-5.984317 -10.18082,-9.205396 -6.88315,-5.863896 -14.36381,-9.864486 -22.51074,-11.375853 -4.21245,-0.648819 -8.41477,-1.178777 -12.65733,-1.396166 -3.74431,-0.196717 -7.49421,-0.468831 -11.1552,0.813746 -2.25607,0.79038 -3.65281,1.713662 -5.77056,2.927685 -14.51076,11.058764 -34.0494,24.902171 35.05091,-25.939849 0.57898,-0.426002 -1.08723,0.9956 -1.62239,1.50834 -1.49543,1.432797 -1.33972,1.31287 -2.69814,2.823392 -15.64195,15.300967 -31.88339,31.932791 -51.26159,37.215903 -4.98118,1.549222 -10.14242,1.2311 -15.16768,2.295679 -2.77962,0.115015 -4.96138,2.272575 -7.38001,3.708066 -1.28364,0.761864 -2.62483,1.350817 -3.92894,2.052351 -4.42007,2.096244 -8.77131,4.354206 -13.33437,5.908883 -4.47302,1.075874 -9.06494,0.859138 -13.59811,0.906817 -4.1626,0.52439 -8.09844,-0.503725 -11.99088,-2.321584 -3.81552,-1.59951 -7.44383,-3.759211 -11.34404,-5.018059 -4.3353,-1.115045 -8.76365,-1.215479 -13.16715,-1.279726 -3.37621,0.01904 -6.75148,0.112403 -10.12754,0.152459 -2.75335,0.04642 -5.50679,0.02617 -8.26031,0.04621 -3.62402,-0.0049 -7.2457,-0.154079 -10.86932,-0.20035 -4.8175,-0.453906 -9.55981,0.310835 -14.3349,0.935935 -2.89528,0.873428 -5.87818,0.921339 -8.73473,2.005577 -0.8119,0.308165 -1.60328,0.700213 -2.40492,1.050318 -0.82266,0.306832 -1.64531,0.613665 -2.46797,0.920495 -0.75201,0.366368 -1.49529,0.764178 -2.25606,1.099103 -2.31472,1.019052 -2.10339,0.67948 -4.35345,1.826329 -2.07058,1.055364 -3.92405,2.538174 -5.80178,4.057739 73.96682,-51.447347 45.03501,-36.605774 31.11227,-21.714433 -2.80732,2.329043 -5.0246,5.267013 -7.06017,8.637376 -2.34288,3.248827 -4.6799,6.557418 -7.68881,8.802187 -14.56952,10.86949 -29.18633,21.632999 -43.7795,32.449499 -4.72626,2.29527 -9.48827,4.44926 -14.41144,5.94136 -0.70833,0.26203 -1.42687,0.48182 -2.12501,0.78612 -0.66241,0.28872 -1.28618,0.71544 -1.95196,0.99089 -2.82279,1.16791 -5.73875,1.90373 -8.55207,3.12175 -3.7278,1.27048 -7.12186,3.36749 -10.38864,5.98293 82.60711,-56.023321 45.38192,-37.298517 33.07214,-23.40009 -1.83896,1.85622 -3.16005,4.36574 -4.75341,6.53421 -11.57018,15.74632 -44.68455,33.39706 -44.98539,33.61716 -3.53498,0.85967 -7.1398,0.89632 -10.72406,0.93376 -5.02446,-0.17853 -10.04671,-0.38668 -15.07318,-0.46083 -6.28721,-0.0906 -12.57423,0.0421 -18.86055,0.16374 -3.71197,0.13617 -7.4252,0.11163 -11.13803,0.15928 -3.3505,-0.26018 -6.63136,0.67164 -9.94939,1.13726 -3.46023,0.33339 -6.9321,0.29568 -10.39825,0.19287 -4.77116,-0.0577 -9.54312,-0.0697 -14.31428,-0.008 -3.87501,-0.0189 -7.74979,0.0604 -11.62462,0.10082 -3.0329,0.0542 -6.06618,0.0552 -9.09869,-0.0266 -3.25945,0.12112 -6.53841,-0.44888 -9.79563,-0.21093 -1.80845,0.13211 -4.9037,0.83216 -6.63502,1.18732 -6.82106,1.29536 -13.67525,2.27349 -20.5446,3.02201 -4.00371,0.0618 -8.05693,0.78694 -12.02864,-0.0346 -3.4329,-0.77702 -6.80319,-1.84258 -10.28239,-2.29459 -3.03056,-0.21604 -6.07618,-0.42838 -9.09528,0.009 -4.23296,0.26089 -8.21973,2.07391 -12.18523,3.82141 -3.1965,1.31457 -6.57736,1.74554 -9.91963,1.71118 -3.20469,-0.13217 -6.46226,0.41459 -9.61891,-0.39008 -2.90291,-1.8637 -5.88741,-3.60945 -9.02194,-4.70882 -4.019923,-0.85499 -8.149094,-0.8333 -12.217463,-0.92064 -4.0594,-0.0501 -2.04868,-0.0473 -6.032153,-0.011 0,0 39.157146,-36.70099 39.157146,-36.70099 l 0,0 c 3.95108,0.0823 1.93534,0.05 6.04724,0.0945 4.57244,0.10354 9.30961,-0.21623 13.65008,1.95648 2.71719,1.36519 5.48054,3.29928 8.41087,3.50762 3.03276,-0.12965 6.07529,0.0165 9.10043,-0.37174 3.09428,-0.56737 6.13227,-1.38451 9.08182,-2.75625 4.19738,-1.50891 8.50075,-2.34913 12.85832,-2.54637 3.31378,-0.0339 6.65078,-0.0637 9.91339,0.80402 3.31025,0.82536 6.59474,1.93492 9.98632,2.01508 3.76872,-0.10712 7.54397,-0.0461 11.30462,-0.44339 6.66965,-0.53115 13.30486,-1.5151 19.90306,-2.89 5.8354,-0.87173 11.68594,-0.90437 17.55568,-0.99268 3.05158,-0.0778 6.10384,-0.084 9.15571,-0.0249 3.7991,0.0431 7.59801,0.12824 11.39733,0.11462 4.76631,0.0704 9.53441,0.0708 14.30006,-0.0611 3.45751,-0.1846 6.92177,-0.32979 10.35727,-0.90553 3.40907,-0.45749 6.81339,-0.72498 10.24393,-0.58459 3.6,0.0472 7.20042,0.0197 10.7994,0.16246 6.15458,0.13219 12.30954,0.2788 18.46534,0.22165 5.25536,-0.0435 10.51174,-0.1433 15.76272,-0.43039 3.26552,-0.21604 6.56245,-0.63649 9.5033,-2.64977 -13.4341,10.04765 -26.91358,19.99479 -40.30229,30.14295 -0.4776,0.36201 1.0625,-0.43252 1.55054,-0.77053 2.06441,-1.4298 3.40673,-4.00234 4.76174,-6.35869 13.93004,-18.34475 33.00591,-27.30086 50.30625,-40.172445 3.52687,-2.07837 7.18047,-3.664509 10.93164,-4.932055 4.26046,-1.453694 8.41434,-3.346897 12.68495,-4.75065 4.69011,-1.88406 9.39354,-3.842776 13.70092,-6.954768 -13.18723,9.866352 -26.37497,19.731577 -39.56169,29.599048 -0.63495,0.47514 1.2657,-0.95986 1.90638,-1.42198 2.21224,-1.5957 4.3138,-3.10142 5.98071,-5.65481 2.55914,-2.958234 3.92472,-7.280425 6.88748,-9.704566 1.75913,-1.613937 3.34419,-3.435587 5.03132,-5.170566 13.82837,-14.220546 41.61217,-23.021718 47.17094,-35.924863 4.16685,-2.478468 8.55213,-4.198415 12.96818,-5.779963 4.68989,-1.651094 9.491,-2.677446 14.3336,-3.233522 4.81627,-0.484975 9.63434,-0.286401 14.46134,-0.357567 3.76489,-0.04684 7.52799,-0.191826 11.29318,-0.205795 2.7321,0.01248 5.46379,-0.02074 8.19583,-0.0052 3.31795,0.009 6.6354,0.05802 9.94948,0.292791 4.66972,0.317685 9.34651,0.833674 13.84934,2.579643 3.85697,1.62478 7.65891,3.463917 11.56951,4.877098 3.58436,1.046789 7.1627,1.221611 10.83742,0.978892 4.37879,-0.194557 8.79178,-0.465443 12.96079,-2.39188 4.39427,-1.889714 8.70229,-4.110421 12.978,-6.403051 3.92202,-2.116494 7.75181,-4.315592 12.10729,-4.314047 4.94501,-0.407267 9.9123,-1.044926 14.60307,-3.255968 0.70343,-0.383029 1.42881,-0.704757 2.11027,-1.149083 0.53435,-0.348428 2.04476,-1.608464 1.52629,-1.222057 -70.00065,52.169789 -50.98033,38.568237 -36.38107,27.13528 1.56407,-1.41702 2.91282,-3.453481 4.54094,-4.707968 14.51222,-11.181768 30.99994,-27.371496 48.31057,-35.542968 6.26697,-2.240079 11.90514,-2.586048 18.36906,-2.051584 4.36096,0.348013 8.7244,0.994167 12.96617,2.388454 8.02962,3.088665 15.31678,8.161593 22.08963,14.541718 3.64244,3.300075 7.10936,6.28344 10.50886,10.020135 6.08628,6.689974 11.25644,14.663375 16.03071,22.897752 0.83393,1.663784 1.72196,3.284379 2.50179,4.99135 4.37249,9.571026 6.8827,20.488096 9.38787,31.029795 0.83039,4.42362 2.17874,11.3326 2.79917,15.77499 1.49095,10.67555 2.00923,21.54061 2.03852,32.37239 0.34801,17.32127 0.59763,34.69563 2.83759,51.83034 2.99399,22.19066 7.54448,43.93355 10.83263,66.05239 0.54012,3.60785 1.15128,7.19917 1.62039,10.82355 2.08538,16.11204 2.50826,32.42836 2.13973,48.73225 -0.33197,19.60245 -0.90204,39.22293 -2.79886,58.69518 -0.95658,8.28808 -1.14779,10.69519 -2.42148,18.82671 -0.85342,5.44843 -1.91342,10.84021 -2.789,16.28281 -0.41115,2.55562 -0.70871,5.14167 -1.16098,7.68569 -0.42927,2.41471 -0.98806,4.78796 -1.48211,7.18193 -2.72699,11.84578 -5.49677,23.92818 -11.9177,33.44001 -3.48348,6.01094 -1.13233,2.00401 -4.50094,7.63003 -0.67861,1.13338 -1.08988,2.64487 -2.02968,3.40624 -14.34092,11.61799 -28.94164,22.70126 -43.62589,33.58068 -0.92229,0.68331 -2.03562,0.83945 -3.08869,1.02966 -1.13813,0.20557 -2.29712,0.1004 -3.44568,0.15059 -11.82803,-1.52317 -23.42795,-5.04579 -35.20004,-7.1201 -9.10827,-1.9984 -18.31807,-3.3062 -27.5479,-3.87803 -24.44101,-1.09994 -48.89224,-1.33705 -73.34534,-0.70517 -4.16738,0.11657 -8.33475,0.23314 -12.50212,0.34971 -3.36187,0.10833 -6.72353,0.22854 -10.08562,0.325 -2.45033,0.0703 -4.90061,0.17822 -7.35155,0.17529 -3.14886,-0.004 -6.08803,0.27737 -8.66555,-2.2787 -1.70487,0.74057 -3.70206,-0.0102 -5.28986,1.3416 13.78956,-10.12544 27.69383,-19.99464 41.36861,-30.37629 0.69053,-0.52423 -1.70726,-0.25727 -2.39358,0.27613 -1.46263,1.13673 -1.82619,3.63692 -2.01121,5.58143 -1.02574,5.73609 -1.82634,11.50345 -2.44273,17.33714 -0.32797,1.52727 -0.99042,4.72347 -1.40428,6.18677 -1.05811,3.7413 -2.62333,7.23178 -3.10944,11.23294 -0.42167,2.57494 -0.58695,5.29095 -1.15324,7.81922 -0.6571,2.93377 -0.51074,1.10437 -1.2611,3.86662 -0.19026,0.70039 -0.28998,1.43646 -0.43497,2.15467 -9.16341,22.6707 -47.38158,18.50683 -49.61334,41.02066 -2.10565,0.89242 -2.73667,1.2743 -5.00652,1.72929 -4.84319,0.97088 -9.76171,0.29866 -14.63355,0.49751 -6.05975,0.13683 -12.11723,0.43921 -18.1534,1.17485 -4.10169,0.43459 -8.20449,0.942 -12.32262,0.47531 -4.25646,-0.39455 -8.48196,-1.1795 -12.55786,-2.87921 -7.2967,-2.6941 -14.60783,-5.4729 -22.14256,-6.83143 -9.61901,-1.77976 -19.36032,-2.43467 -28.88938,-4.93528 -3.84447,-1.61812 -7.6402,-3.72707 -10.67852,-7.26254 -1.99149,-2.74319 -3.88043,-5.6497 -5.58796,-8.69329 -2.10569,-4.15753 -4.24658,-7.08153 -7.51699,-9.87033 -3.98857,-3.8467 -7.74348,-8.08763 -11.81495,-11.79581 -3.93705,-3.288 -8.30996,-5.57423 -12.3161,-8.72383 -3.99844,-3.19041 -7.94641,-6.4859 -12.06141,-9.4264 -5.26963,-3.91209 -10.55916,-7.95678 -14.96635,-13.42904 -2.88652,-3.83274 -5.36971,-8.10238 -8.15317,-12.05907 -2.64787,-3.7552 -5.55347,-7.12614 -8.55862,-10.39791 -3.35616,-3.7462 -6.91636,-6.99735 -10.86026,-9.67224 -4.43122,-3.48206 -8.87886,-6.91335 -13.09283,-10.83048 -3.3404,-2.64951 -6.87583,-4.83096 -10.36453,-7.13162 -4.87948,-2.92892 -9.77175,-5.79705 -14.84611,-8.13032 -3.72107,-1.98588 -7.52219,-3.70385 -11.20853,-5.79565 -4.07189,-2.06427 -8.24261,-3.7552 -12.30157,-5.86554 -10.19013,-5.24404 -20.39661,-10.46363 -30.8121,-14.92435 -21.0223,-8.82712 -42.16608,-17.5792 -63.990297,-22.48304 -7.482177,-1.90826 -15.008328,-3.90872 -22.063943,-7.76412 -5.453446,-2.65529 -11.045084,-4.91626 -16.258751,-8.31328 -4.61305,-3.0489 -9.42322,-5.47118 -14.03355,-8.52334 -4.265145,-3.37381 -7.311615,-6.16753 -9.321259,-12.2919 -1.501138,-4.51075 -2.412261,-9.349 -4.045562,-13.81038 -1.298284,-5.03097 -2.54811,-10.06409 -3.282025,-15.29362 -0.936958,-4.72127 -1.565579,-9.54843 -1.94731,-14.39381 -0.336063,-4.83564 -0.763702,-9.69261 0.0091,-14.5056 0.644759,-5.50233 1.188949,-11.05593 2.332859,-16.43054 0.473652,-4.02573 0.141209,-8.12903 0.195679,-12.18819 -0.02362,-4.06159 0.054,-8.12372 0.04041,-12.18546 0.0068,-4.41903 0.02891,-8.83349 0.210819,-13.24892 0.181825,-3.93258 0.685832,-7.80018 0.9744,-11.703 0.261186,-3.37368 0.942069,-6.66844 1.014728,-10.04583 0.01292,-3.86771 -0.06574,-7.73322 -0.08336,-11.60079 0.0018,-3.6773 -0.06672,-7.35458 0.01292,-11.03093 0.1367,-4.81611 0.528216,-9.58695 1.879174,-14.13156 1.821646,-5.05113 4.028427,-9.20914 7.109972,-13.12883 2.354549,-3.17281 4.72385,-6.35727 6.676759,-9.97095 0.651863,-1.29761 2.790029,-5.27689 3.752576,-6.01344 38.880036,-29.75137 28.377457,-23.16006 44.663793,-33.29108 3.339568,-2.16113 6.944211,-3.53488 10.514923,-4.90987 3.19506,-1.25846 6.189199,-3.27279 9.459358,-4.20585 4.077267,-0.88602 6.817077,-0.67199 10.734867,1.34946 4.07371,2.12036 7.9286,4.83062 11.39611,8.3355 0,0 -41.79508,33.74834 -41.79508,33.74834 z"
       inkscape:connector-curvature="0" />
    <flowRoot
       xml:space="preserve"
       id="flowRoot4988"
       style="font-style:normal;font-weight:normal;font-size:50px;line-height:125%;font-family:sans-serif;letter-spacing:0px;word-spacing:0px;fill:#000000;fill-opacity:1;stroke:none;stroke-width:1px;stroke-linecap:butt;stroke-linejoin:miter;stroke-opacity:1"><flowRegion
         id="flowRegion4990"><rect
           id="rect4992"
           width="274.28571"
           height="88.571426"
           x="405.71429"
           y="548.07648" /></flowRegion><flowPara
         id="flowPara4994">The Cloud</flowPara></flowRoot>    <flowRoot
       xml:space="preserve"
       id="flowRoot4996"
       style="font-style:normal;font-weight:normal;font-size:50px;line-height:125%;font-family:sans-serif;letter-spacing:0px;word-spacing:0px;fill:#000000;fill-opacity:1;stroke:none;stroke-width:1px;stroke-linecap:butt;stroke-linejoin:miter;stroke-opacity:1"
       inkscape:export-xdpi="45.029499"
       inkscape:export-ydpi="45.029499"><flowRegion
         id="flowRegion4998"><rect
           id="rect5000"
           width="254.28571"
           height="127.14288"
           x="34.285713"
           y="739.50507" /></flowRegion><flowPara
         id="flowPara5002">The Front End</flowPara></flowRoot>    <flowRoot
       xml:space="preserve"
       id="flowRoot5004"
       style="fill:black;stroke:none;stroke-opacity:1;stroke-width:1px;stroke-linejoin:miter;stroke-linecap:butt;fill-opacity:1;font-family:sans-serif;font-style:normal;font-weight:normal;font-size:50px;line-height:125%;letter-spacing:0px;word-spacing:0px"><flowRegion
         id="flowRegion5006"><rect
           id="rect5008"
           width="0"
           height="51.42857"
           x="128.57143"
           y="742.36218" /></flowRegion><flowPara
         id="flowPara5010"></flowPara></flowRoot>  </g>
</svg>
